<svg xmlns="http://www.w3.org/2000/svg" version="1.1" xmlns:xlink="http://www.w3.org/1999/xlink" xmlns:svgjs="http://svgjs.com/svgjs" width="200" height="200" x="0" y="0" viewBox="0 0 512 512" style="enable-background:new 0 0 512 512" xml:space="preserve" class=""><g><linearGradient id="a" x1="258.187" x2="253.92" y1="471.892" y2="50.928" gradientUnits="userSpaceOnUse"><stop offset="0" stop-color="#fff"></stop><stop offset="1" stop-color="#666"></stop></linearGradient><path fill="url(#a)" fill-rule="evenodd" d="M256 122.418a39.3 39.3 0 1 1-39.309 39.3 39.353 39.353 0 0 1 39.309-39.3zm0 90.61a51.306 51.306 0 1 0-51.31-51.311A51.376 51.376 0 0 0 256 213.028zm244 148.521a66.984 66.984 0 0 0-100.121-11.474 6.07 6.07 0 0 1-10.147-4.5v-238.7a55.134 55.134 0 0 1 110.268 0v254.68zm0 43.828v-5.572a55.061 55.061 0 0 0-92.067-40.837 18.068 18.068 0 0 1-30.2-13.394V127.787h-25.745c9.412 33.081 1.293 70.861-24.409 100.319l-22.99 26.34c31.783 9.671 51.15 27.9 51.15 48.739 0 31.194-43.809 55.632-99.739 55.632s-99.739-24.438-99.739-55.632c0-20.829 19.381-39.068 51.151-48.739l-22.99-26.34c-25.7-29.458-33.822-67.238-24.41-100.319h-25.74v217.787a18.072 18.072 0 0 1-30.2 13.394A55.061 55.061 0 0 0 12 399.805v5.572a55.072 55.072 0 0 0 55.132 54.892h377.74A55.071 55.071 0 0 0 500 405.377zM12 106.869a55.135 55.135 0 0 1 110.269 0v238.705a6.07 6.07 0 0 1-10.148 4.5A66.984 66.984 0 0 0 12 361.549zm239.48 198.1a6.011 6.011 0 0 0 9.039 0l35.35-40.521c28.741 7.52 47.872 22.91 47.872 38.738 0 23.65-40.182 43.63-87.742 43.63s-87.741-19.98-87.741-43.63c0-16.078 18.71-31.137 47.871-38.728zM193.187 94.3c-33.368 33.36-33.246 87.5.284 125.923L256 291.9l62.53-71.677c33.529-38.422 33.647-92.563.278-125.923a88.939 88.939 0 0 0-125.621 0zm251.685-54.566a67.214 67.214 0 0 0-67.139 67.135v8.916H347.69a96.665 96.665 0 0 0-20.39-29.967 100.942 100.942 0 0 0-142.6 0 96.665 96.665 0 0 0-20.39 29.967h-30.038v-8.916a67.137 67.137 0 0 0-134.272 0v298.508a67.1 67.1 0 0 0 67.134 66.889h377.738A67.093 67.093 0 0 0 512 405.377V106.869a67.218 67.218 0 0 0-67.128-67.135z" data-original="url(#a)"></path></g></svg>
