<svg xmlns="http://www.w3.org/2000/svg" version="1.1" xmlns:xlink="http://www.w3.org/1999/xlink" xmlns:svgjs="http://svgjs.com/svgjs" width="512" height="512" x="0" y="0" viewBox="0 0 512 512" style="opacity: 0.2" xml:space="preserve" class=""><g><path d="M261.305 467.969c0-15.011 4.139-55.708 8.119-91.371-.727.205-1.445.403-2.145.587a76.898 76.898 0 0 1-39.078 0c-.7-.184-1.419-.382-2.146-.587 3.98 35.675 8.12 76.39 8.12 91.41v.068a14.294 14.294 0 0 1-8.25 12.954l-54.765 25.553c-2.756 1.286-1.839 5.417 1.202 5.417h150.844c3.037 0 3.96-4.121 1.212-5.413-15.159-7.122-41.449-19.457-54.825-25.648a14.286 14.286 0 0 1-8.288-12.97z" style="" fill="#d6e5e2" data-original="#d6e5e2"></path><path d="M325.292 174.67c-1.284-43.027 10.499-79.278 16.383-94.529 1.437-3.724-1.306-7.726-5.297-7.726H159.103c-3.992 0-6.734 4.002-5.297 7.726 5.884 15.25 17.667 51.502 16.383 94.529-1.704 57.092-45.918 126.114-9.751 172.129 22.01 28.004 49.565 39.596 67.763 44.381a76.902 76.902 0 0 0 39.079 0c18.199-4.785 45.753-16.377 67.763-44.381 36.166-46.014-8.047-115.036-9.751-172.129z" style="" fill="#e5f9f6" data-original="#e5f9f6"></path><path d="M325.292 174.67c-1.284-43.027 10.499-79.278 16.383-94.529 1.437-3.724-1.306-7.726-5.297-7.726h-48.427s-21.303 45.163-19.599 102.255 45.918 126.114 9.751 172.129c-18.656 23.735-41.288 35.674-58.837 41.678a128.92 128.92 0 0 0 8.935 2.703 76.88 76.88 0 0 0 39.079 0c18.198-4.785 45.753-16.377 67.763-44.381 36.166-46.014-8.047-115.036-9.751-172.129z" style="" fill="#d7e0dc" data-original="#d7e0dc"></path><path d="M163.059 109.935c4.291 17.548 7.867 40.018 7.129 64.735-1.704 57.092-45.918 126.114-9.751 172.129 22.01 28.004 49.565 39.596 67.763 44.381a76.902 76.902 0 0 0 39.079 0c18.199-4.785 45.753-16.377 67.763-44.381 36.167-46.015-8.047-115.037-9.751-172.129-.738-24.716 2.838-47.187 7.129-64.735H163.059z" style="" fill="#fed130" data-original="#fed130"></path><path d="M186.701 25.491C161.658 7.877 117.824 8.456 103.374 9.187a5.187 5.187 0 0 0-4.928 5.09c-.262 14.465.58 58.296 18.996 82.754 41.286 54.831 87.013 14.943 87.013 14.943s38.386-46.996-17.754-86.483z" style="" fill="#77d057" data-original="#77d057" class=""></path><path d="M198.31 65.937a7.664 7.664 0 0 0-5.73-9.202 7.662 7.662 0 0 0-9.202 5.731l-3.498 15.046-11.356-10.994 4.249-18.275a7.665 7.665 0 0 0-5.73-9.203 7.663 7.663 0 0 0-9.202 5.73l-2.165 9.31-10.155-9.831 2.287-9.835a7.665 7.665 0 0 0-5.73-9.203 7.663 7.663 0 0 0-9.202 5.73l-.202.87-23.586-22.832c-2.205.053-4.142.129-5.713.208a5.187 5.187 0 0 0-4.928 5.09 214.089 214.089 0 0 0-.023 5.717l23.586 22.833-.865.231a7.667 7.667 0 0 0 1.972 15.074c.655 0 1.32-.084 1.982-.262l9.759-2.605 10.154 9.83-9.235 2.465a7.666 7.666 0 0 0 3.954 14.811l18.128-4.839 11.18 10.823-14.467 3.862a7.666 7.666 0 0 0 3.954 14.812l23.36-6.236 16.21 15.693c4.046-2.5 6.359-4.514 6.359-4.514s1.938-2.377 4.305-6.502l-16.034-15.523 5.584-24.01z" style="" fill="#68b543" data-original="#68b543"></path><path d="m211.635 69.552-.111-.001a7.665 7.665 0 0 1-7.556-7.773c.291-20.602 5.768-35.138 16.278-43.202 12.112-9.293 26.041-5.913 26.628-5.765a7.666 7.666 0 0 1-3.689 14.881c-.436-.099-7.662-1.623-13.75 3.159-6.415 5.04-9.921 15.809-10.138 31.144a7.665 7.665 0 0 1-7.662 7.557z" style="" fill="#772424" data-original="#772424"></path><circle cx="206.841" cy="75.43" r="34.494" style="" fill="#fc502a" data-original="#fc502a"></circle><path d="M364.901 3.738a7.666 7.666 0 0 0-10.476 2.789l-59.924 103.408h17.719l55.469-95.721a7.665 7.665 0 0 0-2.788-10.476z" style="" fill="#65dbef" data-original="#65dbef"></path><path d="M363.046.009 272.087 5.13c-2.064.116-2.903 2.701-1.312 4.02a415.415 415.415 0 0 0 139.839 76.275c1.971.624 3.69-1.481 2.67-3.279l-44.94-79.247a5.72 5.72 0 0 0-5.298-2.89z" style="" fill="#ff644a" data-original="#ff644a"></path><path d="m413.285 82.146-44.94-79.247a5.721 5.721 0 0 0-5.299-2.89L344.54 1.051c-15.843.892-25.236 18.114-17.409 31.916l12.853 22.665c22.529 12.052 46.16 22.052 70.633 29.794 1.97.623 3.687-1.482 2.668-3.28z" style="" fill="#e52d15" data-original="#e52d15"></path><path d="M348.3 287.169a184.813 184.813 0 0 0-1.654-11.049 252.455 252.455 0 0 0-1.66-8.409c-1.206-5.635-2.596-11.323-4.068-17.037a948.74 948.74 0 0 0-1.495-5.72c-1.01-3.818-2.042-7.642-3.065-11.464-.512-1.911-1.021-3.822-1.525-5.731s-1.001-3.817-1.489-5.722-.966-3.808-1.431-5.707c-3.487-14.242-6.222-28.278-6.621-41.659a226.872 226.872 0 0 1-.084-4.34c-.005-.467-.002-.929-.003-1.395-.003-.971-.005-1.94.004-2.903.005-.543.016-1.082.025-1.622a230.017 230.017 0 0 1 .112-4.296c.031-.871.067-1.738.108-2.601.025-.528.05-1.056.078-1.581.049-.907.104-1.807.163-2.705.03-.464.058-.93.091-1.392.076-1.062.16-2.114.249-3.162.024-.284.045-.572.07-.855.121-1.37.252-2.728.394-4.074l.001-.007c.139-1.319.29-2.623.447-3.918.036-.296.075-.588.112-.883.127-1.008.257-2.01.394-3.003l.143-1.01a245.262 245.262 0 0 1 1.046-6.716c.042-.248.083-.497.126-.743.191-1.107.387-2.202.588-3.284l.05-.271a261.07 261.07 0 0 1 3.014-13.973v-.002h-56.943c-4.29 17.547-7.864 40.021-7.126 64.735 1.704 57.092 45.918 126.114 9.751 172.129-18.656 23.735-41.288 35.674-58.837 41.678a136.396 136.396 0 0 0 4.311 1.39l.567.171c.522.156 1.037.305 1.546.451.181.052.364.105.543.155.666.187 1.323.366 1.966.535 1.6.421 3.211.789 4.829 1.104a76.893 76.893 0 0 0 34.249-1.104c1.138-.299 2.311-.625 3.518-.979 1.358-.399 2.763-.839 4.199-1.315a128.9 128.9 0 0 0 27.842-13.083 124.747 124.747 0 0 0 5.193-3.436 124.737 124.737 0 0 0 7.455-5.621c6.736-5.493 13.365-12.071 19.555-19.947a63.553 63.553 0 0 0 7.063-11.189 63.63 63.63 0 0 0 2.971-7.076c1.406-4.002 2.414-8.117 3.085-12.329.402-2.527.683-5.09.854-7.684.114-1.729.18-3.472.201-5.228.069-5.268-.271-10.652-.912-16.123z" style="" fill="#edba18" data-original="#edba18"></path></g></svg>
