<svg xmlns="http://www.w3.org/2000/svg" version="1.1" xmlns:xlink="http://www.w3.org/1999/xlink" xmlns:svgjs="http://svgjs.com/svgjs" width="512" height="512" x="0" y="0" viewBox="0 0 450 450" style="opacity: 0.2;" xml:space="preserve" class=""><g><path fill="#805333" d="M10.5 79.2C13.7 50.8 26.4 27.6 48 16.5c.2-.1.4-.3.7-.3C70.4 5.3 96.6 8.7 121.5 23c24.4 14 47.5 38.6 63.7 70.5 16.2 31.9 22.3 65.1 19.3 93-3.1 28.5-15.9 51.6-37.5 62.8-.2.1-.4.3-.7.4-21.7 10.8-47.9 7.5-72.8-6.9-24.4-14-47.5-38.6-63.7-70.5-16.2-31.9-22.3-65.1-19.3-93.1z" data-original="#805333" class=""></path><path fill="#5e3d25" d="M62.2 36c.1 0 46.1 6.5 60.2 76.5 2.2 11.1 2.1 14.6 1.9 22.5 0 1.6-.1 3.5-.1 5.4-.1 7.7.8 19.6 5.4 33.7 4.6 14.2 13 30.7 27.9 47.6 1.7 1.9 1.5 4.9-.4 6.6-1.3 1.1-3.1 1.4-4.6.9-4.2-1.2-54.9-16.6-61.4-87.3l-.3-3C87.7 105.6 84.2 67 58.5 44c-1.9-1.7-2.1-4.7-.4-6.6 1-1.1 2.6-1.7 4.1-1.4z" data-original="#5e3d25"></path><path fill="#4d321e" d="M98.9 134.9c-3-33.3-6.6-71.9-32.3-94.9-1-.9-1.5-2.1-1.6-3.4-1.8-.5-2.8-.6-2.8-.6-1.5-.2-3.1.3-4.2 1.5-1.7 1.9-1.6 4.9.4 6.6 25.7 23 29.3 61.6 32.3 94.9l.3 3c6.5 70.7 57.2 86.1 61.4 87.3 1.5.5 3.3.2 4.6-.9 1.1-1 1.7-2.4 1.6-3.8-10.5-3.6-53.4-22.1-59.4-86.6z" data-original="#4d321e"></path><path fill="#5e3d25" d="M107.5 230.4C55 200.1 18 127.2 24.6 66.9c2.1-19 8.4-35.5 18.8-47.8C24.6 31 13.5 52.8 10.5 79.2c-6.6 60.3 30.4 133.2 82.9 163.5 24.8 14.3 51 17.7 72.8 6.9.2-.1.5-.2.7-.4 7.2-3.7 13.4-8.8 18.7-14.9-1.5.9-3 1.8-4.6 2.6-.2.1-.4.3-.7.4-21.7 10.8-47.9 7.4-72.8-6.9z" data-original="#5e3d25"></path><path fill="#805333" d="M354 64.6c28.3-4.3 54 2 70.3 19.9.2.2.4.4.5.6 16.1 18.2 19.6 44.4 12.2 72.1-7.2 27.2-25 55.9-51.6 79.8s-57.1 38.4-84.8 42.7c-28.3 4.3-54-2-70.3-20-.2-.2-.4-.4-.5-.6-16.1-18.2-19.6-44.4-12.2-72.1 7.2-27.2 25-55.9 51.6-79.8 26.6-23.8 57-38.3 84.8-42.6z" data-original="#805333" class=""></path><path fill="#5e3d25" d="M409.2 103.3c0 .1 5.7 46.2-58.4 78-10.1 5-13.5 5.9-21.2 7.7-1.6.4-3.4.8-5.3 1.3-7.5 1.9-18.7 5.8-31.2 13.9s-26.3 20.5-38.8 39.2c-1.4 2.2-4.4 2.7-6.5 1.3-1.4-1-2.2-2.6-2.1-4.2 0-4.3 1.9-57.3 68.4-81.9l2.8-1.1c31.4-11.6 67.8-25 83.3-55.8 1.2-2.3 4-3.2 6.3-2.1 1.6.8 2.5 2.2 2.7 3.7z" data-original="#5e3d25"></path><path fill="#4d321e" d="M323.1 164.4c31.4-11.6 67.8-25 83.3-55.8.6-1.2 1.7-2 2.9-2.4 0-1.8-.1-2.9-.1-2.9-.2-1.5-1.1-2.9-2.5-3.7-2.3-1.2-5.1-.2-6.3 2.1-15.5 30.8-51.9 44.2-83.3 55.8l-2.8 1.1c-66.6 24.6-68.4 77.6-68.4 81.9-.1 1.6.6 3.2 2.1 4.2 1.3.8 2.8 1 4.1.5.7-11.1 7.5-57.3 68.3-79.8z" data-original="#4d321e"></path><path fill="#5e3d25" d="M233.1 197.4C248.8 138.8 309.6 84.2 369.6 75c18.9-2.9 36.5-1.1 51 5.8-16.4-15.1-40.3-20.2-66.6-16.2-60 9.2-120.8 63.8-136.4 122.4-7.4 27.7-3.9 53.9 12.2 72.1.2.2.3.4.5.6 5.5 6 12 10.7 19.3 14.2-1.3-1.2-2.5-2.4-3.7-3.7-.2-.2-.4-.4-.5-.6-16.1-18.3-19.6-44.5-12.3-72.2z" data-original="#5e3d25"></path><path fill="#805333" d="M240.8 297.3c23.1 17 36.8 39.6 35.6 63.8v.8c-1.5 24.2-17.5 45.2-42.3 59.6-24.3 14.1-57.2 21.8-92.9 19.9-35.7-1.9-67.5-13.2-90.2-29.8-23.1-17-36.8-39.6-35.6-63.8v-.8c1.5-24.2 17.5-45.2 42.3-59.6 24.3-14.1 57.2-21.8 92.9-19.9 35.7 2 67.6 13.2 90.2 29.8z" data-original="#805333" class=""></path><path fill="#5e3d25" d="M252.5 363.7c-.1.1-28.6 36.6-96.4 13.9-10.7-3.6-13.7-5.4-20.4-9.6-1.4-.9-3-1.8-4.6-2.8-6.6-4-17.3-9.1-31.9-12.2s-33.1-4.1-55.2.3c-2.5.5-5-1.1-5.5-3.7-.3-1.7.3-3.4 1.5-4.4 3.1-3 41.8-39.2 106.3-9.6l2.8 1.3c30.4 14 65.6 30.2 98.4 19.4 2.5-.8 5.1.5 5.9 3 .4 1.6 0 3.2-.9 4.4z" data-original="#5e3d25"></path><path fill="#4d321e" d="M148.4 346.1c30.4 14 65.6 30.2 98.4 19.4 1.3-.4 2.6-.3 3.7.3 1.3-1.3 1.9-2.1 2-2.1 1-1.2 1.3-2.8.8-4.4-.8-2.5-3.5-3.8-5.9-3-32.8 10.8-68-5.4-98.4-19.4l-2.8-1.3C81.8 306 43 342.2 39.9 345.2c-1.2 1.1-1.8 2.7-1.5 4.4.3 1.5 1.3 2.7 2.5 3.3 8.4-7.3 45.8-35.2 104.7-8.1z" data-original="#4d321e"></path><path fill="#5e3d25" d="M61.4 305.8c52.5-30.4 134.1-26 183 9.9 15.4 11.3 26.6 25.1 32 40.2-.9-22.3-14.2-42.8-35.6-58.6-48.9-35.9-130.6-40.3-183-9.9C33 301.8 17 322.8 15.5 347v.8c-.4 8.1.9 16 3.6 23.6-.1-1.8-.1-3.5 0-5.3v-.8c1.5-24.2 17.5-45.1 42.3-59.5z" data-original="#5e3d25"></path></g></svg>
