<svg xmlns="http://www.w3.org/2000/svg" version="1.1" xmlns:xlink="http://www.w3.org/1999/xlink" xmlns:svgjs="http://svgjs.com/svgjs" width="512" height="512" x="0" y="0" viewBox="0 0 511 512" style="opacity: 0.2;" xml:space="preserve" class=""><g transform="matrix(1,0,0,1,130,0)"><path fill="#912c2c" d="M229.05 73.707H14.563a8.082 8.082 0 0 0-7.496 5.027c-5.8 14.254-17.175 61.102 17.02 169.13C55.87 348.28 44.504 446 36.707 489.065 34.543 501.016 43.738 512 55.879 512H187.73c12.145 0 21.34-10.984 19.176-22.934-7.8-43.066-19.164-140.785 12.621-241.203 34.196-108.027 22.82-154.875 17.02-169.129a8.086 8.086 0 0 0-7.496-5.027zm0 0" data-original="#912c2c" class=""></path><path fill="#7c1e1e" d="M236.547 78.734a8.086 8.086 0 0 0-7.496-5.027h-53.719s28.059 39.668-14.516 174.156C126.48 356.336 142.5 461.664 149.98 498.352c1.442 7.054-3.949 13.648-11.148 13.648h48.898c12.145 0 21.34-10.984 19.176-22.934-7.8-43.066-19.164-140.785 12.621-241.203 34.196-108.027 22.82-154.875 17.02-169.129zm0 0" data-original="#7c1e1e" class=""></path><path fill="#dfede7" d="M202.922 463.18c-3.543 4.406-8.98 7.28-15.192 7.28H55.88c-6.207 0-11.645-2.874-15.188-7.28a509.366 509.366 0 0 1-3.988 25.902C34.54 501.027 43.743 512 55.88 512H187.73c12.141 0 21.34-10.973 19.18-22.918a509.366 509.366 0 0 1-3.988-25.902zm0 0" data-original="#dfede7"></path><path fill="#d7e0dc" d="M189.973 511.875c.02-.004.039-.008.058-.008 10.977-1.281 18.899-11.617 16.875-22.8-.148-.82-.3-1.665-.449-2.524l-.105-.59c-.125-.719-.25-1.453-.375-2.195l-.094-.547c-.32-1.895-.637-3.871-.961-5.93-.012-.082-.024-.164-.04-.25-.155-1-.308-2.023-.464-3.066a531.503 531.503 0 0 1-1.008-7.082c-.004-.012-.004-.028-.008-.04-.16-1.19-.32-2.402-.476-3.632-.004-.008-.004-.02-.004-.031-3.547 4.406-8.98 7.28-15.192 7.28H145.2c1.632 11.474 3.359 20.923 4.78 27.892 1.438 7.054-3.949 13.648-11.152 13.648h48.902c.575 0 1.141-.031 1.7-.082.183-.016.363-.023.543-.043zm0 0" data-original="#d7e0dc" class=""></path><path fill="#dfede7" d="M14.563 73.707a8.082 8.082 0 0 0-7.497 5.027C4.664 84.637 1.31 96.137.625 115.246h242.36c-.68-19.11-4.036-30.61-6.438-36.512a8.086 8.086 0 0 0-7.496-5.027zm0 0" data-original="#dfede7"></path><path fill="#d7e0dc" d="M175.332 73.707s7.86 11.125 8.945 41.54h58.707v-.005c-.382-10.738-1.609-19.074-3.039-25.363-.004-.012-.004-.024-.007-.035a84.214 84.214 0 0 0-.981-3.903 82.188 82.188 0 0 0-.469-1.64l-.047-.145a64.885 64.885 0 0 0-.921-2.84l-.06-.168c-.144-.41-.288-.8-.429-1.171a47.551 47.551 0 0 0-.484-1.242 8.045 8.045 0 0 0-2.98-3.657 8.105 8.105 0 0 0-4.516-1.371zm0 0" data-original="#d7e0dc" class=""></path><path fill="#9e4949" d="m116.594 214.457-35.469-29.383a3.267 3.267 0 0 1-.434-4.601L110.074 145a3.27 3.27 0 0 1 4.602-.43l35.469 29.383a3.267 3.267 0 0 1 .433 4.602l-29.383 35.468a3.267 3.267 0 0 1-4.601.434zM120.95 272.613l29.964-40.047a3.548 3.548 0 0 1 4.969-.714l40.047 29.964a3.548 3.548 0 0 1 .715 4.97l-29.965 40.046a3.547 3.547 0 0 1-4.97.715l-40.046-29.965a3.547 3.547 0 0 1-.715-4.969zm0 0" data-original="#9e4949" class=""></path><path fill="#912c2c" d="m195.93 261.816-32.028-23.964a728.908 728.908 0 0 1-3.086 10.011c-5.289 16.711-9.379 33.344-12.492 49.668l13.387 10.016a3.548 3.548 0 0 0 4.969-.715l29.965-40.047a3.548 3.548 0 0 0-.715-4.969zm0 0" data-original="#912c2c" class=""></path><path fill="#9e4949" d="m176.238 137.398 30.813-1.218a2.194 2.194 0 0 1 2.277 2.101l1.215 30.817a2.19 2.19 0 0 1-2.102 2.273l-30.812 1.215a2.188 2.188 0 0 1-2.277-2.098l-1.215-30.816a2.188 2.188 0 0 1 2.101-2.274zm0 0" data-original="#9e4949" class=""></path><path fill="#912c2c" d="m207.05 136.18-23.124.914c-.637 10.285-1.965 22.039-4.254 35.41l28.77-1.137a2.19 2.19 0 0 0 2.101-2.273l-1.215-30.813a2.194 2.194 0 0 0-2.277-2.101zm0 0" data-original="#912c2c" class=""></path><path fill="#9e4949" d="m41.137 115.61 32.996 19.05a2.702 2.702 0 0 1 .988 3.692l-19.05 32.996a2.698 2.698 0 0 1-3.692.988l-32.996-19.047a2.708 2.708 0 0 1-.992-3.695l19.05-32.996a2.706 2.706 0 0 1 3.696-.989zM59.543 232.895l32.379-3.29a2.31 2.31 0 0 1 2.531 2.067l3.29 32.379a2.308 2.308 0 0 1-2.063 2.531l-32.383 3.29a2.308 2.308 0 0 1-2.531-2.063l-3.29-32.383a2.31 2.31 0 0 1 2.067-2.531zm0 0" data-original="#9e4949" class=""></path><path fill="#fc4e51" d="M283.988 6.371a7.613 7.613 0 0 0-8.765-6.266l-64.297 10.692c-4.883.812-8.856 4.238-10.364 8.926l-31.125 95.687h16.024l29.207-89.789 63.055-10.484a7.619 7.619 0 0 0 6.265-8.766zm0 0" data-original="#fc4e51" class=""></path></g></svg>
