<svg xmlns="http://www.w3.org/2000/svg" version="1.1" xmlns:xlink="http://www.w3.org/1999/xlink" xmlns:svgjs="http://svgjs.com/svgjs" width="512" height="512" x="0" y="0" viewBox="0 0 64 64" style="opacity: 0.2" xml:space="preserve" class=""><g><path fill="#f9ca79" d="M62 23.06v26.46c0 5.82-5.81 10.16-11 10.16h-.17l-1.94-.33-2-.34-44.06-7.48a1 1 0 0 1-.83-1V26.11h1v-.06z" data-original="#f9ca79"></path><path fill="#00a03e" d="m42.21 5.82-1.54-1.27a1 1 0 0 0-1.41.13 5 5 0 0 0-.16 6.14l3.79 2a1.62 1.62 0 0 0 .16-.21 5 5 0 0 0-.84-6.79z" data-original="#00a03e"></path><path fill="#00a03e" d="m49.92 12.18-1.54-1.27a5 5 0 0 0-3.67-1.12 4.9 4.9 0 0 0-3.12 1.53 2.11 2.11 0 0 0-.25.27l3.11 3.5a5.11 5.11 0 0 0 1.79.32h.45a5 5 0 0 0 3.37-1.8 1 1 0 0 0-.14-1.43z" data-original="#00a03e"></path><path fill="#742906" d="M49.21 11.86v1L35.3 16.45l-.29-1-32.3 9.82a1 1 0 0 0 .14 1.95L28 30.9a10 10 0 0 1 1.09.22 4.09 4.09 0 0 1 2.82 2.41c0 .09.07.16.08.15v4.25a2.5 2.5 0 0 0 1.12 2 4.23 4.23 0 0 0 4.27.24l.29-.15A2.66 2.66 0 0 0 39 37.68v-3.46a1.2 1.2 0 0 1 1-1l2.78.3A1.33 1.33 0 0 1 44 34.83v9.47L2 37.07v8l44.89 7.77V59l2 .34v-9.92a3.37 3.37 0 0 0 .67-.49l.29-.28a4.6 4.6 0 0 0 1.27-3.25v-9.7a3.16 3.16 0 0 1 2.07-2.57c4.4-1.55 8.81-5.31 8.81-10.2 0-6.24-6.74-10.85-12.79-11.07z" data-original="#742906"></path><path fill="#e41749" d="M45.31 13.27 41 9.75a3.13 3.13 0 0 0-2.89-.55 3.75 3.75 0 0 0-2.51 2.45l-2.49 7.52a2.66 2.66 0 0 0 2.51 3.51 2.74 2.74 0 0 0 1.11-.24l7.44-3.35a3.79 3.79 0 0 0 2.2-2.93 3.16 3.16 0 0 0-1.06-2.89z" data-original="#e41749"></path></g></svg>
