<svg xmlns="http://www.w3.org/2000/svg" version="1.1" xmlns:xlink="http://www.w3.org/1999/xlink" xmlns:svgjs="http://svgjs.com/svgjs" width="512" height="512" x="0" y="0" viewBox="0 0 512 512" style="enable-background:new 0 0 512 512" xml:space="preserve" class=""><g><path fill="#ffdd40" d="m46.215 393.609 399.404 28.532c34.607-42.248 55.38-96.266 55.38-155.14 0-135.309-109.69-244.998-244.999-244.998S11.001 131.692 11.001 267.001c0 46.333 12.866 89.659 35.214 126.608z" data-original="#ffdd40" class=""></path><path fill="#2a428c" d="M132.063 478.365C168.424 499.733 210.776 512 256 512s87.576-12.267 123.938-33.635z" data-original="#2a428c"></path><path fill="#1c2e7a" d="M236.173 511.201c-6.725-8.128-5.971-16.708-3.775-22.974 1.144-3.263 1.04-6.719-.076-9.862h-100.26c30.994 18.214 66.343 29.808 104.111 32.836z" data-original="#1c2e7a"></path><path fill="#e80054" d="M104.212 324.877H311.16v27.335H104.212z" data-original="#e80054"></path><path fill="#e9efff" d="m469.357 171.685-112.155 64.753c4.46 8.803 7.024 18.533 7.024 28.801 0 12.054-8.178 22.432-19.889 25.238l-2.836.679c.384.184 10.581 12.581 39.883 18.878.505.109 12.368 2.803 12.449 14.677.047 6.821-7.609 15.022-19.749 14.965l-21.441.008v3.161c5.264 0 9.735 4.555 9.185 10.152-.458 4.659-4.64 8.308-9.522 8.308h-8.058v3.161c10.756 0 14.068 14.726 4.148 19.254l-6.613 3.019h12.432c4.048 0 7.816 1.193 11.002 3.223l88.283-50.97z" data-original="#e9efff" class=""></path><path fill="#bec8f7" d="m374.083 339.676-21.441.008v3.161c5.264 0 9.735 4.555 9.185 10.152-.458 4.659-4.64 8.308-9.522 8.308h-8.058v3.161c10.756 0 14.068 14.726 4.148 19.254l-6.613 3.019h12.432c4.049 0 7.816 1.193 11.002 3.223l16.498-9.525V338.5a24.01 24.01 0 0 1-7.631 1.176zM364.226 265.239c0 12.054-8.178 22.432-19.889 25.238l-2.836.679c.384.185 10.581 12.581 39.883 18.878.04.009.159.036.331.08v-87.829l-24.513 14.152c4.459 8.803 7.024 18.533 7.024 28.802z" data-original="#bec8f7"></path><path fill="#ff4155" d="m274.65 76.443-9.51-37.672a7.902 7.902 0 0 1 5.728-9.597c4.234-1.073 8.529 1.496 9.598 5.728l9.51 37.672a7.904 7.904 0 0 1-15.326 3.869z" data-original="#ff4155"></path><path fill="#e80054" d="M239.04 18.441h-32.5c-4.365 0-7.903-3.538-7.903-7.903s3.538-7.903 7.903-7.903h32.501a7.903 7.903 0 1 1-.001 15.806z" data-original="#e80054"></path><path fill="#ff4155" d="M285.859 193.194c30.264 0 60.12 18.765 72.448 45.552l110.754-63.944 4.333-45.714H233.25l6.076 64.105h46.533z" data-original="#ff4155"></path><path fill="#e80054" d="m233.25 129.089 6.076 64.105h46.533c30.264 0 60.12 18.765 72.448 45.552l23.407-13.514v-18.284c0-56.067 20.833-72.842 32.929-77.859z" data-original="#e80054"></path><path fill="#ff4155" d="m453.795 335.875-91.215 52.663c7.169 3.211 12.184 10.4 12.184 18.751 0 10.953-8.583 19.956-19.54 20.495l-7.8.384 7.336 2.679c9.429 3.443 13.108 16.028 5.436 24.103-13.737 14.454-32.278 22.415-52.206 22.415h-3.202v1.581h74.166a246.185 246.185 0 0 0 66.665-56.806z" data-original="#ff4155"></path><path fill="#e80054" d="m381.714 377.491-19.135 11.047c7.169 3.211 12.184 10.4 12.184 18.751 0 10.953-8.582 19.956-19.54 20.496l-7.8.384 7.336 2.679c9.429 3.443 13.108 16.028 5.436 24.103-13.737 14.454-32.278 22.415-52.206 22.415h-3.201v1.581h74.166a245.67 245.67 0 0 0 21.373-13.98c-19.507-12.066-18.612-35.548-18.612-35.548l-.001-51.928z" data-original="#e80054"></path><path fill="#e9efff" d="M467.347 103.798c-1.415-17.626-16.27-31.614-34.244-31.614H270.596c-17.974 0-32.829 13.988-34.244 31.614z" data-original="#e9efff" class=""></path><path fill="#d3dcfb" d="M380.697 72.185H270.596c-17.974 0-32.829 13.988-34.244 31.614h144.49c-15.969-3.581-16.475-28.098-.145-31.614z" data-original="#d3dcfb"></path><path fill="#d3dcfb" d="M475.402 130.143H231.241c-7.857 0-14.226-6.369-14.226-14.226s6.369-14.226 14.226-14.226h244.161c7.857 0 14.226 6.369 14.226 14.226.001 7.857-6.368 14.226-14.226 14.226z" data-original="#d3dcfb"></path><path fill="#bec8f7" d="M365.807 115.917c0-7.857 6.369-14.226 14.226-14.226H231.241c-7.857 0-14.226 6.369-14.226 14.226s6.369 14.226 14.226 14.226h148.792c-7.857 0-14.226-6.369-14.226-14.226z" data-original="#bec8f7"></path><path fill="#ff7186" d="M320.243 168.255H266.41a7.903 7.903 0 0 1 0-15.806h53.833c4.365 0 7.903 3.538 7.903 7.903s-3.538 7.903-7.903 7.903z" data-original="#ff7186"></path><path fill="#fcad6d" d="M349.588 428.365H223.683l-2.945 2.945c-6.546 6.547-17.144 6.547-23.69 0l-2.945-2.945H71.659a246.093 246.093 0 0 0 61.388 50.582h174.942c21.002 0 39.943-8.797 53.351-22.906 9.926-10.446 2.658-27.676-11.752-27.676z" data-original="#fcad6d" class=""></path><path fill="#fd995b" d="M219.913 438.306c.532-2.137.599-4.335.23-6.458-6.578 5.985-16.74 5.818-23.095-.538l-2.945-2.945H72.492l-.464.412a246.096 246.096 0 0 0 61.019 50.169h99.47a16.096 16.096 0 0 0-4.084-6.677c-11.785-11.592-10.491-26.041-8.52-33.963z" data-original="#fd995b"></path><path fill="#ff9100" d="M144.005 378.396a60.13 60.13 0 0 0-26.809-15.508H73.538c-6.415 0-11.663 5.248-11.663 11.663s5.248 11.663 11.663 11.663h74.685c1.093 0 2.147-.163 3.152-.448z" data-original="#ff9100"></path><path fill="#ffb332" d="M344.247 362.888h-43.658a60.13 60.13 0 0 0-26.809 15.508l-7.371 7.371c1.005.284 2.059.448 3.152.448h74.685c6.415 0 11.663-5.248 11.663-11.663.001-6.416-5.247-11.664-11.662-11.664z" data-original="#ffb332"></path><path fill="#823c26" d="M72.595 429.419h122.562l-44.26-44.259H63.57c-7.017 0-13.293 3.314-17.355 8.449a245.748 245.748 0 0 0 26.38 35.81z" data-original="#823c26"></path><path fill="#a05838" d="M354.215 385.16h-87.327l-44.26 44.259h131.586c12.171 0 22.129-9.958 22.129-22.13.002-12.171-9.957-22.129-22.128-22.129z" data-original="#a05838"></path><path fill="#ff7186" d="M252.109 326.403c-21.602 0-21.614-21.076-43.216-21.076s-21.614 21.076-43.216 21.076c-20.87 0-21.582-19.669-41.087-21.001v23.218c0 6.955 5.69 12.646 12.645 12.646h139.1c6.955 0 12.645-5.691 12.645-12.646v-22.585c-15.514 3.645-17.622 20.368-36.871 20.368z" data-original="#ff7186"></path><path fill="#ff4155" d="M186.598 339.081c-3.975-3.86-4.288-10.191-4.134-13.542a4.708 4.708 0 0 0-1.588-3.732c-.056-.05-.105-.099-.16-.149-3.812 2.754-8.406 4.745-15.04 4.745-20.87 0-21.582-19.669-41.087-21.001v23.218c0 6.955 5.69 12.646 12.645 12.646h50.558a4.294 4.294 0 0 0-1.194-2.185zM79.274 326.403c-3.535 0-6.484-.572-9.052-1.516-9.649 10.055-19.55 16.675-27.829 16.322v.056h69.55c6.955 0 12.646-5.691 12.646-12.646v-23.218a30.734 30.734 0 0 0-2.117-.075c-21.599.001-21.599 21.077-43.198 21.077zM374.074 341.23c-8.001-.054-17.369-6.816-26.511-16.343-2.568.944-5.516 1.516-9.052 1.516-21.599 0-21.599-21.076-43.198-21.076-2.352 0-4.436.262-6.332.707v22.585c0 6.955 5.69 12.646 12.645 12.646h72.448z" data-original="#ff4155"></path><path fill="#ff7186" d="M272.795 47.376c-4.712 0-9.004-3.183-10.21-7.96a24.26 24.26 0 0 0-23.545-18.341c-5.82 0-10.538-4.718-10.538-10.538C228.503 4.718 233.22 0 239.04 0a45.313 45.313 0 0 1 43.98 34.256c1.425 5.644-1.995 11.372-7.638 12.797a10.53 10.53 0 0 1-2.587.323z" data-original="#ff7186"></path><path fill="#24b55e" d="M50.548 311.101c-4.625-1.554-9.567-2.612-14.477-2.612 0 0-13.608 2.873-13.699 16.213-.095 13.815 25.36 27.987 48.876 2.282-8.942-3.302-13.177-11.197-20.7-15.883zM367.237 311.101c4.625-1.554 9.568-2.612 14.477-2.612 0 0 13.608 2.873 13.699 16.213.095 13.815-25.36 27.987-48.876 2.282 8.942-3.302 13.177-11.197 20.7-15.883z" data-original="#24b55e"></path><path fill="#ffdd40" d="M352.642 341.265H65.48c-5.617 0-10.547 4.145-11.095 9.735-.631 6.424 4.456 11.887 10.757 11.887h36.335a60.143 60.143 0 0 1 42.527 17.615l51.925 51.925c7.159 7.159 18.766 7.159 25.925 0l51.925-51.925a60.143 60.143 0 0 1 42.527-17.615h35.997c5.617 0 10.547-4.145 11.095-9.735.632-6.423-4.455-11.887-10.756-11.887z" data-original="#ffdd40" class=""></path><path fill="#ffb332" d="M54.385 351c-.631 6.424 4.457 11.887 10.758 11.887h36.335a60.14 60.14 0 0 1 42.527 17.616l51.925 51.925c7.159 7.159 18.766 7.159 25.925 0l28.478-28.478c-23.748 11.752-47.461-24.294-60.419-37.252-8.789-8.789-5.656-17.355-2.73-21.958a4.644 4.644 0 0 0 .609-3.476H65.48c-5.617.001-10.547 4.146-11.095 9.736z" data-original="#ffb332"></path><path fill="#49d88b" d="M343.372 290.67H74.413c-10.899 11.926-38.342 17.818-38.342 17.818 21.602 0 21.602 21.076 43.203 21.076 21.599 0 21.599-21.076 43.198-21.076 21.602 0 21.602 21.076 43.204 21.076s21.614-21.076 43.216-21.076 21.614 21.076 43.216 21.076 21.602-21.076 43.204-21.076c21.599 0 21.599 21.076 43.198 21.076 21.602 0 21.602-21.076 43.203-21.076.001.001-27.443-5.892-38.341-17.818z" data-original="#49d88b"></path><path fill="#38c674" d="M36.071 308.488c21.602 0 21.602 21.076 43.203 21.076 21.599 0 21.599-21.076 43.198-21.076 21.602 0 21.602 21.076 43.204 21.076 7.498 0 12.393-2.541 16.495-5.856a4.762 4.762 0 0 0-1.295-1.901c-11.856-10.559-6.169-21.203-2.26-26.158a4.57 4.57 0 0 0 .435-4.979H74.413c-10.898 11.926-38.342 17.818-38.342 17.818z" data-original="#38c674"></path><path fill="#fcad6d" d="M285.859 191.614H131.926c-40.662 0-79.948 32.963-79.948 73.625 0 15.21 12.33 27.539 27.539 27.539h258.751c15.21 0 27.539-12.329 27.539-27.539 0-40.662-39.286-73.625-79.948-73.625z" data-original="#fcad6d" class=""></path><path fill="#fd995b" d="M178.48 289.818c-23.995-27.545-.144-55.004-.144-55.004l2.911-21.767c-7.331-7.331-6.345-13.733-4.488-17.587a7.19 7.19 0 0 0 .672-3.846h-45.505c-40.662 0-79.948 32.963-79.948 73.625 0 15.209 12.33 27.539 27.539 27.539h100.077a4.542 4.542 0 0 0-1.114-2.96z" data-original="#fd995b"></path><path fill="#fcf0be" d="M278.484 232.499a7.903 7.903 0 0 1 .001-11.177l5.962-5.96a7.904 7.904 0 0 1 11.176 11.178l-5.962 5.96a7.904 7.904 0 0 1-11.177-.001zM224.68 232.499a7.903 7.903 0 0 1 .001-11.177l5.961-5.96a7.903 7.903 0 1 1 11.177 11.178l-5.961 5.96a7.905 7.905 0 0 1-11.178-.001zM170.877 232.499a7.903 7.903 0 0 1 .001-11.177l5.961-5.96a7.903 7.903 0 1 1 11.177 11.178l-5.961 5.96a7.905 7.905 0 0 1-11.178-.001zM117.074 232.499a7.903 7.903 0 0 1 .001-11.177l5.961-5.96a7.903 7.903 0 1 1 11.177 11.178l-5.961 5.96a7.905 7.905 0 0 1-11.178-.001z" data-original="#fcf0be"></path><path fill="#ff4155" d="M271.383 13.548A45.292 45.292 0 0 0 239.04 0c-5.82 0-10.538 4.719-10.538 10.538 0 5.82 4.718 10.538 10.538 10.538 6.654 0 12.776 2.707 17.218 7.178-2.116-9.045 6.124-17.082 15.125-14.706z" data-original="#ff4155"></path></g></svg>
