<svg xmlns="http://www.w3.org/2000/svg" version="1.1" xmlns:xlink="http://www.w3.org/1999/xlink" xmlns:svgjs="http://svgjs.com/svgjs" width="512" height="512" x="0" y="0" viewBox="0 0 512 512" style="enable-background:new 0 0 512 512" xml:space="preserve" class=""><g><path fill="#ae6c6c" d="M512 256c0 37.04-7.87 72.24-22.03 104.03-11.769 26.436-78.537 4.609-98.099 25.41-23.172 24.64-.526 90.589-31.841 104.53C328.24 504.13 293.04 512 256 512s-72.24-7.87-104.03-22.03C94.22 464.26 47.74 417.78 22.03 360.03 7.87 328.24 0 293.04 0 256s7.87-72.24 22.03-104.03C47.74 94.22 94.22 47.74 151.97 22.03 183.76 7.87 218.96 0 256 0s72.24 7.87 104.03 22.03c57.75 25.71 104.23 72.19 129.94 129.94C504.13 183.76 512 218.96 512 256z" data-original="#ae6c6c" class=""></path><path fill="#8ac9fe" d="M489.97 62.46v297.57a255.87 255.87 0 0 1-30 50.69 258.129 258.129 0 0 1-49.25 49.25 255.87 255.87 0 0 1-50.69 30H62.46c-22.33 0-40.43-18.1-40.43-40.43V62.46c0-22.33 18.1-40.43 40.43-40.43h387.08c22.33 0 40.43 18.1 40.43 40.43z" data-original="#8ac9fe" class=""></path><path fill="#60b7ff" d="M81.656 489.967h-19.2c-22.33 0-40.43-18.1-40.43-40.43V62.457c0-22.33 18.1-40.43 40.43-40.43h19.2c-22.33 0-40.43 18.1-40.43 40.43v387.08c.001 22.33 18.101 40.43 40.43 40.43z" data-original="#60b7ff"></path><path fill="#c8effe" d="M459.97 62.46v348.26c-4.44 5.85-9.14 11.5-14.07 16.94-2.23 2.47-4.51 4.89-6.84 7.27-8.81 9.03-18.28 17.4-28.34 25.04H62.46c-5.75 0-10.43-4.68-10.43-10.43V62.46c0-5.75 4.68-10.43 10.43-10.43h387.08c5.75 0 10.43 4.68 10.43 10.43z" data-original="#c8effe" class=""></path><path fill="#ffd15b" d="m344.841 342.94 18.729 42.14-18.729 42.86H256l-20.335-42.86L256 342.94z" data-original="#ffd15b" class=""></path><path fill="#fd4755" d="M174.71 342.22v43.22l-33.32 35.18c-39.93-15.61-68.29-54.51-68.29-99.9l46.518-22.22 38.482 22.22c0 10.31 7.06 19.01 16.61 21.5z" data-original="#fd4755" class=""></path><path fill="#8ac9fe" d="m256 213.5 26.32 38.668L256 298.5h-75.68c-1.94 0-3.82.25-5.61.72l-38.095-25.82 4.775-52.58c12.07-4.73 25.2-7.32 38.93-7.32zM166.795 84.06l13.542 45.839-13.542 39.161H73.1v-85z" data-original="#8ac9fe" class=""></path><path fill="#fd4755" d="M372.29 92.06v49.61l-35.01 28.11c-1.79-.47-3.67-.72-5.6-.72H256l-20.335-41.222L256 84.06h75.68c14.37 0 28.08 2.84 40.61 8z" data-original="#fd4755" class=""></path><path fill="#ffd15b" d="M166.795 84.06H256v85h-89.205zM438.9 191.28c0 44.75-27.56 83.19-66.61 99.22l-33.262-34.86-1.748-42.86c9.55-2.49 16.62-11.19 16.62-21.5l44.4-12.92z" data-original="#ffd15b" class=""></path><path fill="#8ac9fe" d="M438.9 191.28h-85c0-10.31-7.07-19.01-16.62-21.5l35.01-77.72c39.05 16.03 66.61 54.47 66.61 99.22z" data-original="#8ac9fe" class=""></path><path fill="#fd4755" d="M372.29 290.5c-12.53 5.16-26.24 8-40.61 8H256v-85h75.68c1.93 0 3.81-.25 5.6-.72z" data-original="#fd4755" class=""></path><path fill="#ffd15b" d="M174.71 299.22c-9.55 2.49-16.61 11.19-16.61 21.5h-85c0-45.39 28.36-84.29 68.29-99.9z" data-original="#ffd15b" class=""></path><path fill="#8ac9fe" d="M256 342.94v85h-75.68c-13.73 0-26.86-2.59-38.93-7.32l33.32-78.4c1.79.47 3.67.72 5.61.72z" data-original="#8ac9fe" class=""></path><path fill="#fff7f3" d="M344.841 342.94H438.9v85h-94.059z" data-original="#fff7f3" class=""></path><g fill="#554e56"><path d="M438.9 335.94H180.32c-1.3 0-2.59-.17-3.84-.49-6.7-1.75-11.38-7.81-11.38-14.73a15.232 15.232 0 0 1 15.22-15.22h151.36c14.98 0 29.54-2.87 43.27-8.52 43.1-17.7 70.95-59.19 70.95-105.7s-27.85-88-70.94-105.69c-13.74-5.66-28.3-8.53-43.28-8.53H73.1c-3.87 0-7 3.13-7 7v85c0 3.87 3.13 7 7 7h258.58c1.3 0 2.58.17 3.83.49 6.71 1.75 11.39 7.81 11.39 14.73s-4.68 12.98-11.4 14.73c-1.24.32-2.52.49-3.82.49H180.32c-14.32 0-28.27 2.63-41.48 7.8-21.17 8.28-39.26 22.56-52.31 41.3-13.37 19.19-20.43 41.71-20.43 65.12s7.06 45.93 20.43 65.12c13.05 18.74 31.14 33.02 52.31 41.3 13.21 5.17 27.16 7.8 41.48 7.8H438.9c.05 0 .11 0 .16-.01 2.33-2.38 4.61-4.8 6.84-7.27v-84.72c0-3.87-3.13-7-7-7zM159.79 162.06H80.1v-71h79.69zm89.21 0h-75.21v-71H249zm84.06.04c-.46-.02-.92-.04-1.38-.04H263v-71h68.68c10.69 0 21.14 1.67 31.15 4.96zm13.52 4.07 29.22-64.85c32.2 15.78 53.39 47.26 55.85 82.96h-71.61a29.249 29.249 0 0 0-13.46-18.11zm13.46 32.11h71.61c-2.46 35.7-23.65 67.17-55.85 82.96l-29.22-64.85a29.276 29.276 0 0 0 13.46-18.11zM263 220.5h68.68c.46 0 .92-.02 1.38-.04l29.77 66.08c-10.01 3.29-20.46 4.96-31.15 4.96H263zm-82.68 0H249v71h-68.68c-.42 0-.85.02-1.27.04l-28.29-66.56a99.389 99.389 0 0 1 29.56-4.48zm-82.3 43.1c10.15-14.58 23.78-26.08 39.68-33.56l27.84 65.5a29.23 29.23 0 0 0-13.58 18.18H80.35c1.25-18.01 7.28-35.21 17.67-50.12zm39.68 147.81c-15.9-7.49-29.53-18.99-39.68-33.57-10.39-14.91-16.42-32.11-17.67-50.12h71.61a29.275 29.275 0 0 0 13.58 18.19zm111.3 9.53h-68.68c-10.12 0-20.03-1.52-29.56-4.48l28.29-66.56c.42.02.85.04 1.27.04H249zm88.84 0H263v-71h74.84zm94.06 0h-80.06v-71h80.06z" fill="#554e56" data-original="#554e56" class=""></path><path d="M391.871 342.94H438.9v42.14h-47.029zM344.841 385.44h47.029v42.5h-47.029z" fill="#554e56" data-original="#554e56" class=""></path></g><g fill="#8ac9fe"><path d="M207.301 112.395h3.193v33.331a5 5 0 1 0 10 0v-38.331a5 5 0 0 0-5-5h-8.193a5 5 0 1 0 0 10zM303.714 361.274h-8.192a5 5 0 1 0 0 10h3.192v33.331a5 5 0 1 0 10 0v-38.331a5 5 0 0 0-5-5zM134.448 266.334h-21.087a5 5 0 1 0 0 10h13.428l-13.768 31.319a5 5 0 1 0 9.154 4.024l16.85-38.331a4.997 4.997 0 0 0-.391-4.745 4.998 4.998 0 0 0-4.186-2.267z" fill="#8ac9fe" data-original="#8ac9fe" class=""></path></g><path fill="#ffd15b" d="M303.978 247.374c-.638 0-1.236.016-1.802.047l.915-5.522h10.162a5 5 0 1 0 0-10h-14.402a5 5 0 0 0-4.933 4.183l-2.853 17.22a4.997 4.997 0 0 0 1.981 4.839 5.024 5.024 0 0 0 5.225.432c.033-.017.131-.064.276-.13 1.477-.665 2.579-1.069 5.43-1.069 1.86 0 3.592.745 4.876 2.097a6.681 6.681 0 0 1 1.838 4.992c-.181 3.494-3.068 6.287-6.572 6.357a6.77 6.77 0 0 1-5.703-2.941 5 5 0 0 0-8.26 5.638 16.687 16.687 0 0 0 14.164 7.302c8.722-.176 15.907-7.133 16.357-15.837.241-4.634-1.383-9.036-4.572-12.395a16.788 16.788 0 0 0-12.127-5.213z" data-original="#ffd15b" class=""></path><path fill="#8ac9fe" d="M387.911 247.812a5 5 0 0 0 4.957 5.043h.044a5 5 0 0 0 4.999-4.957l.052-6.356a5 5 0 0 0 .068-9.999c.052-9.108.073-18.415-.04-19.779-.278-3.334-2.303-6.059-5.157-6.943-2.845-.881-5.846.197-8.034 2.881-2.215 2.718-12.308 20.913-15.349 26.424a5.002 5.002 0 0 0 4.378 7.415h14.134l-.052 6.271zm-5.582-16.27a941.697 941.697 0 0 1 5.741-10.111 2998.16 2998.16 0 0 1-.043 10.111z" data-original="#8ac9fe" class=""></path><path fill="#ffd15b" d="M317.314 140.638c-3.382.042-6.951.072-10.067.083a505.396 505.396 0 0 0 8.337-11.597c2.497-3.568 4.128-6.952 4.849-10.058.038-.164.068-.33.09-.497l.189-1.483c.026-.21.04-.422.04-.634 0-8.165-6.644-14.808-14.809-14.808-7.06 0-13.17 5.023-14.53 11.943a5 5 0 1 0 9.812 1.928 4.813 4.813 0 0 1 4.718-3.871 4.816 4.816 0 0 1 4.802 4.546l-.106.834c-.462 1.79-1.581 3.984-3.248 6.366-6.062 8.663-9.681 13.4-11.624 15.945-2.466 3.228-3.703 4.848-2.862 7.58.498 1.62 1.723 2.862 3.357 3.406.674.225 1.246.416 8.692.416 2.943 0 6.963-.03 12.485-.099a5 5 0 0 0 4.938-5.062c-.035-2.762-2.287-4.999-5.063-4.938z" data-original="#ffd15b" class=""></path><path fill="#fd4755" d="M385.863 165.87c-2.387 0-4.434-1.776-4.762-4.133a4.864 4.864 0 0 1-.047-.675 5 5 0 1 0-10 0c0 .689.048 1.382.143 2.058 1.014 7.269 7.318 12.75 14.666 12.75 8.165 0 14.808-6.643 14.808-14.808a14.75 14.75 0 0 0-3.723-9.809 14.75 14.75 0 0 0 3.723-9.808c0-8.165-6.643-14.808-14.808-14.808-7.061 0-13.172 5.023-14.53 11.944a4.998 4.998 0 0 0 3.943 5.869 5.002 5.002 0 0 0 5.869-3.943 4.813 4.813 0 0 1 4.718-3.87c2.651 0 4.808 2.157 4.808 4.808s-2.156 4.808-4.808 4.808a5 5 0 1 0 0 10c2.651 0 4.808 2.157 4.808 4.809s-2.156 4.808-4.808 4.808z" data-original="#fd4755" class=""></path><path fill="#ffd15b" d="M131.021 355.791a13.005 13.005 0 0 0 2.242-7.316c0-7.213-5.868-13.081-13.081-13.081s-13.081 5.868-13.081 13.081c0 2.708.828 5.226 2.243 7.316-3.214 2.943-5.246 7.158-5.246 11.85 0 8.869 7.215 16.084 16.084 16.084s16.085-7.215 16.085-16.084c.001-4.691-2.031-8.907-5.246-11.85zm-13.919-7.315c0-1.699 1.382-3.081 3.081-3.081s3.081 1.382 3.081 3.081-1.382 3.081-3.081 3.081-3.081-1.383-3.081-3.081zm3.081 25.25c-3.354 0-6.084-2.729-6.084-6.084s2.729-6.084 6.084-6.084 6.085 2.729 6.085 6.084-2.73 6.084-6.085 6.084z" data-original="#ffd15b" class=""></path><path fill="#fd4755" d="M207.465 359.14c-8.869 0-16.084 7.215-16.084 16.084s7.215 16.084 16.084 16.084c.123 0 .241-.016.363-.018-2.954 4.363-5.94 6.696-6.038 6.772a5 5 0 0 0 5.987 8.01c.55-.409 13.503-10.237 15.619-28.668.003-.03-.002-.058.001-.087.09-.687.152-1.382.152-2.093.001-8.869-7.215-16.084-16.084-16.084zm-6.084 16.084c0-3.355 2.729-6.084 6.084-6.084s6.085 2.729 6.085 6.084-2.729 6.084-6.085 6.084a6.09 6.09 0 0 1-6.084-6.084zM207.465 247.431c-.122 0-.241.016-.363.018 2.954-4.363 5.94-6.696 6.038-6.772a5 5 0 0 0-5.987-8.01c-.55.409-13.503 10.237-15.62 28.667-.004.032.002.063-.001.094a16.127 16.127 0 0 0-.151 2.086c0 8.869 7.215 16.084 16.084 16.084s16.085-7.215 16.085-16.084-7.216-16.083-16.085-16.083zm0 22.169c-3.354 0-6.084-2.729-6.084-6.084s2.729-6.084 6.084-6.084 6.085 2.729 6.085 6.084-2.73 6.084-6.085 6.084z" data-original="#fd4755" class=""></path><path fill="#fff7f3" d="M133.513 122.23c-5.737-2.116-11.071-4.424-12.585-5.088-1.132-.872-1.676-2.234-1.465-3.707.136-.945.812-3.252 4.148-4.257 6.84-2.062 13.109 2.922 13.263 3.045a5 5 0 0 0 6.413-7.674c-.421-.353-10.427-8.602-22.561-4.947-6.048 1.822-10.324 6.577-11.162 12.411-.783 5.456 1.581 10.704 6.17 13.695.221.144.452.27.693.378.264.118 6.547 2.915 13.624 5.525 2.178.803 7.167 3.097 6.463 7.037-.509 2.851-3.905 5.8-8.707 5.8-4.75 0-9.329-1.923-12.247-5.143a5 5 0 0 0-7.41 6.714c4.782 5.278 12.131 8.428 19.657 8.428 9.297 0 17.099-5.905 18.552-14.042 1.088-6.094-1.714-14.069-12.846-18.175zM107.348 183.512H55.965c-10.761 0-19.485 8.724-19.485 19.485v51.383c0 10.761 8.724 19.485 19.485 19.485h51.383c10.761 0 19.485-8.724 19.485-19.485v-51.383c0-10.762-8.724-19.485-19.485-19.485z" data-original="#fff7f3" class=""></path><path fill="#dedbee" d="M75.99 273.859H55.97c-10.77 0-19.49-8.72-19.49-19.48v-51.38c0-10.77 8.72-19.49 19.49-19.49h20.02c-10.76 0-19.49 8.72-19.49 19.49v51.38c0 10.76 8.73 19.48 19.49 19.48z" data-original="#dedbee" class=""></path><circle cx="81.656" cy="228.688" r="15.188" fill="#554e56" data-original="#554e56" class=""></circle><path fill="#fff7f3" d="m173.055 128.25-36.333 36.333c-7.609 7.609-7.609 19.947 0 27.556l36.333 36.333c7.609 7.609 19.947 7.609 27.556 0l36.333-36.333c7.609-7.609 7.609-19.947 0-27.556l-36.333-36.333c-7.609-7.61-19.946-7.61-27.556 0z" data-original="#fff7f3" class=""></path><path fill="#dedbee" d="m214.767 214.309-14.156 14.156c-7.616 7.616-19.948 7.616-27.556.007l-36.331-36.331c-7.616-7.616-7.615-19.948 0-27.563l14.156-14.156c-7.608 7.608-7.616 19.947 0 27.563l36.331 36.331c7.609 7.608 19.948 7.601 27.556-.007z" data-original="#dedbee" class=""></path><g fill="#554e56"><circle cx="186.833" cy="145.552" r="10.938" fill="#554e56" data-original="#554e56" class=""></circle><circle cx="186.833" cy="211.17" r="10.938" fill="#554e56" data-original="#554e56" class=""></circle><circle cx="186.833" cy="178.361" r="10.938" fill="#554e56" data-original="#554e56" class=""></circle></g></g></svg>
