<svg xmlns="http://www.w3.org/2000/svg" version="1.1" xmlns:xlink="http://www.w3.org/1999/xlink" xmlns:svgjs="http://svgjs.com/svgjs" width="512" height="512" x="0" y="0" viewBox="0 0 512 512" style="opacity: 0.2;" xml:space="preserve" class=""><g><path fill="#dbd8db" d="m364.065 234.371-22.203 10.044 23.037 23.037 12.387-12.387-5.673-13.145z" data-original="#dbd8db"></path><path fill="#c9c5c9" d="M371.613 241.92v9.789c0 5.006-6.053 7.514-9.593 3.974l-15.994-15.994-5.316 18.037 55.878 55.879 6.839-39.871z" data-original="#c9c5c9"></path><path fill="#615260" d="M413.007 57.085h-15.203l-9.675-7.537V16.516h24.878z" data-original="#615260"></path><path fill="#4e3d4d" d="M404.645 16.516v16.516c0 9.122-7.395 16.516-16.516 16.516V82.58h33.032V16.516z" data-original="#4e3d4d"></path><path fill="#dbd8db" d="M413.442 280.774h-25.313v-33.032l8.258-16.684-8.258-16.348v-33.033l8.258-16.755-8.258-16.277v-33.032l10.978-5.424h14.335z" data-original="#dbd8db"></path><path fill="#c9c5c9" d="M388.129 90.839v24.774c9.122 0 16.516 7.395 16.516 16.516v16.516h-16.516v33.032c9.122 0 16.516 7.395 16.516 16.516v16.516h-16.516v33.032c9.122 0 16.516 7.395 16.516 16.516v16.516h16.516V90.839z" data-original="#c9c5c9"></path><path fill="#eceaec" d="M331.75 66.064c-5.517 0-9.716 5.383-7.945 10.608a32.895 32.895 0 0 0 2.68 5.908l13.654 9.039h120.217l-6.162-25.555z" data-original="#eceaec"></path><path fill="#dbd8db" d="M477.541 66.065h-23.347c0 9.121-7.395 16.516-16.516 16.516H326.485c5.718 9.849 16.403 16.516 28.612 16.516h99.097c14.533 0 26.873-9.385 31.292-22.424 1.771-5.225-2.429-10.608-7.945-10.608z" data-original="#dbd8db"></path><path fill="#736572" d="M388.129 0c-9.122 0-16.516 7.395-16.516 16.516l11.693 8.479h46.588L421.161 0z" data-original="#736572"></path><path fill="#e1f5fb" d="M413.442 346.218v-65.443h-25.313v65.443a49.544 49.544 0 0 1-10.588 30.612l-42.025 53.486 19.066 29.013H488.85l-64.82-82.499a49.546 49.546 0 0 1-10.588-30.612z" data-original="#e1f5fb"></path><path fill="#cceffa" d="M431.749 376.83a49.547 49.547 0 0 1-10.588-30.612v-65.443h-16.516v65.443c0 14.742 5.016 29.238 14.121 40.818l47.029 59.858 7.95-16.615z" data-original="#cceffa"></path><path fill="#eceaec" d="M412.903 264.258h-16.516c-9.122 0-16.516 7.395-16.516 16.516l16.516 6.754h23.788z" data-original="#eceaec"></path><path fill="#c9c5c9" d="M455.903 246.032a8.254 8.254 0 0 0-11.677 0l-28.903 28.903L427 286.613l28.903-28.903a8.255 8.255 0 0 0 0-11.678z" data-original="#c9c5c9"></path><path fill="#a5e3f0" d="m484.03 451.944-25.872-14.771c-1.994.324-4.191.504-6.645.504-23.469 0-23.469-16.516-46.937-16.516-23.453 0-23.453 16.516-46.905 16.516-10.866 0-16.694-3.553-22.155-7.361l-32.981 41.977a24.54 24.54 0 0 0-5.245 15.163c0 2.812.473 5.512 1.343 8.028l23.201 5.98h165.623z" data-original="#a5e3f0"></path><path fill="#dbd8db" d="M412.903 264.258c0 9.121-7.395 16.516-16.516 16.516h-16.516c0 9.121 7.395 16.516 16.516 16.516h16.516c9.121 0 16.516-7.395 16.516-16.516 0-9.122-7.394-16.516-16.516-16.516z" data-original="#dbd8db"></path><path fill="#615260" d="M421.161 0c0 9.121-7.395 16.516-16.516 16.516h-33.032c0 9.121 7.395 16.516 16.516 16.516h33.032c9.121 0 16.516-7.395 16.516-16.516C437.677 7.394 430.283 0 421.161 0zM340.71 211.016l-98.222-98.221c-21.665-21.657-52.694-27.831-80.996-16.113-28.298 11.722-45.879 38.032-45.879 68.665v297.104c0 9.109-7.407 16.516-16.516 16.516l-5.582 25.972c27.323 0 47.566-15.165 47.566-42.488V165.347c0-26.163 17.324-40.283 29.647-45.384 12.331-5.093 34.86-8.145 53.798 10.794l95.197 95.197 14.972 2.404z" data-original="#615260"></path><path fill="#4e3d4d" d="M148.645 462.452V165.347c0-20.343 13.165-33.044 25.488-38.145 12.331-5.093 30.617-5.435 45 8.948l98.222 98.221 17.34-6.014-103.889-103.885c-20.089-20.105-45.71-19.657-62.992-12.532-17.25 7.141-35.685 24.923-35.685 53.407v297.105c0 18.243-14.789 33.032-33.032 33.032V512c27.322 0 49.548-22.226 49.548-49.548z" data-original="#4e3d4d"></path><path fill="#887f88" d="M16.516 478.968C7.395 478.968 0 486.363 0 495.484S7.395 512 16.516 512l82.581-16.516v-16.516z" data-original="#887f88"></path><path fill="#736572" d="M33.032 495.484c-9.121 0-16.516 7.394-16.516 16.516h82.581v-16.516z" data-original="#736572"></path><path fill="#eceaec" d="m329.032 222.694 5.894 17.975 17.461 5.38 11.678-11.678-23.355-23.355z" data-original="#eceaec"></path><path fill="#dbd8db" d="m317.296 234.382 11.676-11.675 23.351 23.351-11.675 11.675z" data-original="#dbd8db"></path><path fill="#7ad7ee" d="m506.755 472.293-33.01-42.013c-4.248 2.961-8.719 5.776-15.588 6.893l14.646 18.643a24.521 24.521 0 0 1-19.28 39.668h-154.89c3.338 9.59 12.473 16.516 23.201 16.516h164.758c9.18 0 18.085-4.612 22.41-12.709 4.856-9.094 3.604-19.553-2.247-26.998z" data-original="#7ad7ee"></path><path fill="#eceaec" d="M412.903 198.193h-16.516c-9.122 0-16.516 7.395-16.516 16.516l16.516 6.754h23.788z" data-original="#eceaec"></path><path fill="#dbd8db" d="M412.903 198.194c0 9.121-7.395 16.516-16.516 16.516h-16.516c0 9.121 7.395 16.516 16.516 16.516h16.516c9.121 0 16.516-7.395 16.516-16.516 0-9.122-7.394-16.516-16.516-16.516z" data-original="#dbd8db"></path><path fill="#eceaec" d="M412.903 132.129h-16.516c-9.122 0-16.516 7.395-16.516 16.516l16.516 6.754h23.788z" data-original="#eceaec"></path><path fill="#dbd8db" d="M412.903 132.129c0 9.121-7.395 16.516-16.516 16.516h-16.516c0 9.121 7.395 16.516 16.516 16.516h16.516c9.121 0 16.516-7.395 16.516-16.516 0-9.122-7.394-16.516-16.516-16.516z" data-original="#dbd8db"></path></g></svg>
