<svg xmlns="http://www.w3.org/2000/svg" version="1.1" xmlns:xlink="http://www.w3.org/1999/xlink" xmlns:svgjs="http://svgjs.com/svgjs" width="512" height="512" x="0" y="0" viewBox="0 0 512 512" style="enable-background:new 0 0 512 512" xml:space="preserve" class=""><g><path fill="#474f54" d="m435 301-15 15v90l15 15 77 39.272V261.728z" data-original="#474f54" class=""></path><path fill="#32393f" d="M345 301h90v120h-90z" data-original="#32393f" class=""></path><path fill="#474f54" d="M330 61h-5.566c-33.316 0-66.531-2.433-99.434-7.075-30.921-4.362-61.567-10.662-91.701-19.061C131.341 34.459 120.982 31 105 31 47.109 31 0 78.109 0 136s47.109 105 105 105 105-47.109 105-105c0-20.891-6.517-40.532-17.424-57.217 10.772 1.946 21.586 3.604 32.424 5.105 13.467 1.866 26.973 3.45 40.54 4.53C249.794 104.634 240 126.665 240 151c0 49.629 40.371 90 90 90s90-40.371 90-90-40.371-90-90-90z" data-original="#474f54" class=""></path><path fill="#32393f" d="M240 151c0 49.629 40.371 90 90 90s90-40.371 90-90-40.371-90-90-90h-5.566c-33.316 0-66.531-2.433-99.434-7.075v29.963c13.467 1.866 26.973 3.45 40.54 4.53C249.794 104.634 240 126.665 240 151z" data-original="#32393f" class=""></path><path fill="#474f54" d="M315 136h30v30h-30z" data-original="#474f54" class=""></path><path fill="#575f64" d="M105 181c-24.814 0-45-20.186-45-45s20.186-45 45-45 45 20.186 45 45-20.186 45-45 45zM225 241H30v240h360V241z" data-original="#575f64" class=""></path><path fill="#474f54" d="M225 241h165v240H225z" data-original="#474f54" class=""></path><path fill="#fed843" d="M225 301H120v120h180V301z" data-original="#fed843" class=""></path><path fill="#fabe2c" d="M225 301h75v120h-75z" data-original="#fabe2c"></path></g></svg>
