<svg xmlns="http://www.w3.org/2000/svg" version="1.1" xmlns:xlink="http://www.w3.org/1999/xlink" xmlns:svgjs="http://svgjs.com/svgjs" width="512" height="512" x="0" y="0" viewBox="0 0 64 64" style="opacity: 0.2;" xml:space="preserve" class=""><g><g data-name="Color copy"><path fill="#f89c8d" d="M54 41a6.962 6.962 0 0 0-4 1.26A7 7 0 0 0 39 48c0 3.866 3.134 13 7 13a6.962 6.962 0 0 0 4-1.26A6.962 6.962 0 0 0 54 61c3.866 0 7-9.134 7-13a7 7 0 0 0-7-7z" data-original="#f89c8d"></path><path fill="#f8664f" d="M47.215 41.115A1.977 1.977 0 0 0 47 42a2 2 0 1 0 3.97-.3 7.118 7.118 0 0 0-.97.562 6.969 6.969 0 0 0-2.785-1.147z" data-original="#f8664f"></path><path fill="#f8664f" d="M45 42c0-.313.027-.62.047-.928A7 7 0 0 0 39 48c0 3.866 3.134 13 7 13a6.962 6.962 0 0 0 4-1.26A6.962 6.962 0 0 0 54 61c1.922 0 3.662-2.258 4.927-5A14 14 0 0 1 45 42z" data-original="#f8664f"></path><path fill="#c4f236" d="M48 41.941v.4a1.638 1.638 0 0 0 1.1 1.579 1.611 1.611 0 0 0 2.1-1.3l.24-1.678a6.834 6.834 0 0 1 1.448-3.322 1.749 1.749 0 0 0-.043-2.211 1.764 1.764 0 0 0-2.785.07A11.185 11.185 0 0 0 48 41.941z" data-original="#c4f236"></path><path fill="#a1d51c" d="M51.1 41.92a1.638 1.638 0 0 1-1.1-1.578v-.4a11.165 11.165 0 0 1 1.268-5.157 1.673 1.673 0 0 0-1.211.7A11.185 11.185 0 0 0 48 41.941v.4a1.638 1.638 0 0 0 1.1 1.579 1.611 1.611 0 0 0 2.1-1.3l.095-.662a1.714 1.714 0 0 1-.195-.038zM20.727 32.175l-1.286 1.532-6.651-4.535a1.81 1.81 0 0 1-.366-2.659 1.81 1.81 0 0 1 2.682-.1z" data-original="#a1d51c"></path><path fill="#7ab92d" d="M15.106 26.412a1.782 1.782 0 0 0-.531-.367 1.778 1.778 0 0 0 .166.952l.929 1.929a2.182 2.182 0 0 1-.881-.346l-2.575-1.755a1.811 1.811 0 0 0 .576 2.347l6.651 4.535 1.286-1.532z" data-original="#7ab92d"></path><path fill="#c4f236" d="m19.277 32.7 1.97.348 2.18-7.75A1.81 1.81 0 0 0 22 23.028a1.81 1.81 0 0 0-2.12 1.647z" data-original="#c4f236"></path><path fill="#7ab92d" d="m21.427 25.708.2-2.7a1.809 1.809 0 0 0-1.751 1.672l-.6 8.027 1.97.348L22.7 27.87a2.2 2.2 0 0 1-1.273-2.162z" data-original="#7ab92d"></path><path fill="#c4f236" d="m21.113 32.566-1.88.684L15.741 26a1.811 1.811 0 0 1 1.012-2.486 1.81 1.81 0 0 1 2.373 1.255z" data-original="#c4f236"></path><path fill="#a1d51c" d="m18.366 27.448-1.842-3.824A1.8 1.8 0 0 0 15.741 26l3.492 7.253 1.88-.684-.991-3.888a2.2 2.2 0 0 1-1.756-1.233z" data-original="#a1d51c"></path><path fill="#f89c8d" d="M19.147 30.089a5.557 5.557 0 0 0-3.16 7.517l8.294 18.283 7.519-2.736-5.4-19.337a5.557 5.557 0 0 0-7.253-3.727z" data-original="#f89c8d"></path><path fill="#f8664f" d="M21.976 40.6 17.6 30.953a5.56 5.56 0 0 0-1.611 6.653l8.294 18.283 7.517-2.736-2.091-7.483a8.639 8.639 0 0 1-7.733-5.07z" data-original="#f8664f"></path><g fill="#cc5144"><path d="m29.1 43.49-3.54 1.29a1.016 1.016 0 0 1-.34.06.988.988 0 0 1-.94-.66 1 1 0 0 1 .6-1.28l3.61-1.31a.185.185 0 0 1 .07-.02zM26.94 35.76l-3.18 1.16a1.016 1.016 0 0 1-.34.06 1 1 0 0 1-.34-1.94l3.25-1.18a.235.235 0 0 1 .08-.02zM22.65 42.65l-3.45 1.26a.96.96 0 0 1-.33.06l-.75-1.67a.914.914 0 0 1 .39-.27l3.46-1.26a1 1 0 1 1 .68 1.88zM30.15 47.24a1.036 1.036 0 0 1-.4.28l-1.88.68a1.073 1.073 0 0 1-.35.06 1 1 0 0 1-.34-1.94l1.88-.68a.939.939 0 0 1 .64-.01z" fill="#cc5144" data-original="#cc5144"></path></g><circle cx="14" cy="51" r="10" fill="#fcbc04" data-original="#fcbc04"></circle><path fill="#c4f236" d="M15 41h-2a6 6 0 0 1 6-6h2a6 6 0 0 1-6 6z" data-original="#c4f236"></path><path fill="#e59730" d="M22 51a9.995 9.995 0 0 1-9.99-9.8A10 10 0 1 0 24 51c0-.067-.009-.132-.01-.2A10.031 10.031 0 0 1 22 51z" data-original="#e59730"></path><g fill="#a1d51c"><path d="M15 38h-1.191A5.97 5.97 0 0 0 13 41h2a6 6 0 0 0 6-6h-.809A5.992 5.992 0 0 1 15 38z" fill="#a1d51c" data-original="#a1d51c"></path><path d="M13 45a1 1 0 0 1-1-1 7.316 7.316 0 0 0-5.009-6.949l-.307-.1a1 1 0 0 1 .632-1.9l.308.1A9.313 9.313 0 0 1 14 44a1 1 0 0 1-1 1z" fill="#a1d51c" data-original="#a1d51c"></path></g><path fill="#84d2f4" d="M47 61H27a26.274 26.274 0 0 0 3.769-17.353L27 15h20l-3.769 28.647A26.274 26.274 0 0 0 47 61z" data-original="#84d2f4"></path><path fill="#57b7eb" d="m43.231 43.647.073-.554a14.212 14.212 0 0 1-10.16-11.8L31 15h-4l3.769 28.647A26.274 26.274 0 0 1 27 61h20a26.274 26.274 0 0 1-3.769-17.353z" data-original="#57b7eb"></path><path fill="#f89c8d" d="m42.057 22.824-3.881-.97 3.485-13.94a2 2 0 0 1 1.49-1.464L58.1 3l.9 3.9-13.755 3.172z" data-original="#f89c8d"></path><path fill="#f8664f" d="m59 6.9-.579-2.509L45.152 7.45a2 2 0 0 0-1.491 1.464l-.961 3.858a6.9 6.9 0 0 1-3.338 4.351l-1.183 4.731 3.881.97 3.188-12.752z" data-original="#f8664f"></path><path fill="#fcbc04" d="M43.231 43.647 46.211 21H27.789l2.98 22.647A26.274 26.274 0 0 1 27 61h20a26.274 26.274 0 0 1-3.769-17.353z" data-original="#fcbc04"></path><path fill="#e59730" d="m43.231 43.647.073-.554a14.212 14.212 0 0 1-10.16-11.8L31.789 21h-4l2.98 22.647A26.274 26.274 0 0 1 27 61h20a26.274 26.274 0 0 1-3.769-17.353z" data-original="#e59730"></path><g fill="#f8664f"><circle cx="42" cy="27" r="1" fill="#f8664f" data-original="#f8664f"></circle><circle cx="39" cy="31" r="1" fill="#f8664f" data-original="#f8664f"></circle><circle cx="40" cy="37" r="1" fill="#f8664f" data-original="#f8664f"></circle></g><circle cx="36" cy="41" r="1" fill="#cc5144" data-original="#cc5144"></circle><circle cx="39" cy="46" r="1" fill="#cc5144" data-original="#cc5144"></circle><circle cx="35" cy="48" r="1" fill="#cc5144" data-original="#cc5144"></circle><circle cx="34" cy="27" r="1" fill="#f8664f" data-original="#f8664f"></circle><circle cx="34" cy="34" r="1" fill="#f8664f" data-original="#f8664f"></circle><path fill="#cc5144" d="M34 35a.961.961 0 0 0 .151-.03 14.106 14.106 0 0 1-.632-1.83A.99.99 0 0 0 34 35z" data-original="#cc5144"></path><path fill="#fcbc04" d="M27.984 53.183A27.839 27.839 0 0 1 5.965 42.392L3 44.122a22.307 22.307 0 0 0 36.4 11.3 2.235 2.235 0 0 0-2.171-3.8 27.806 27.806 0 0 1-9.245 1.561z" data-original="#fcbc04"></path><path fill="#f9e109" d="M25.634 57A22.2 22.2 0 0 0 39.5 52.143a2.091 2.091 0 0 0-2.272-.53 27.9 27.9 0 0 1-31.263-9.221l-1.016.592A22.294 22.294 0 0 0 25.634 57z" data-original="#f9e109"></path></g></g></svg>
