<svg xmlns="http://www.w3.org/2000/svg" version="1.1" xmlns:xlink="http://www.w3.org/1999/xlink" xmlns:svgjs="http://svgjs.com/svgjs" width="512" height="512" x="0" y="0" viewBox="0 0 512 512" style="opacity: 0.2;" xml:space="preserve" class=""><g><path fill="#739937" d="M427.99 118.3s40.98-9.25 58.76-6.02c0 0-41.9 23.79-42.62 48.89v.01c-12.7 2.04-25.94 7.53-38.93 17.99 3.88-16.72 12.56-30.31 26.6-40.39-15.6-1.89-29.78 1.57-41.38 14.77l-22.18-35.53-22.59 35.53c-11.6-13.2-25.46-24.97-41.06-23.08 14.03 10.09 22.4 31.32 26.28 48.04-15.37-12.38-26.34-22.01-40.44-25.23-7.59-21.98-41.11-41-41.11-41 17.79-3.23 58.76 6.02 58.76 6.02-3.23-14.55-29.8-49.13-29.8-49.13 33.95 1.61 52.84 26.98 52.84 26.98-4.85-29.1-31.13-52.96-31.13-52.96 28.83-13.28 54.6 28.34 54.6 28.34l13.65-54.35 13.25 54.35s25.77-41.62 54.6-28.34c0 0-26.29 23.86-31.14 52.96 0 0 18.89-25.37 52.84-26.98 0 0-26.56 34.58-29.8 49.13z" data-original="#739937"></path><path fill="#436f1e" d="M444.13 161.18c-12.7 2.04-25.94 7.53-38.93 17.99 3.88-16.72 12.56-30.31 26.6-40.39-15.6-1.89-29.78 1.57-41.38 14.77l-22.18-35.53-22.59 35.53c-11.6-13.2-25.46-24.97-41.06-23.08 14.03 10.09 22.4 31.32 26.28 48.04l1.37 18.1a112.479 112.479 0 0 1 77.79 3.57h.01c2.21.93 4.38 1.92 6.53 2.98 11.06-18.55 29.45-31.38 64.42-39.03a79.966 79.966 0 0 0-36.86-2.95z" data-original="#436f1e"></path><path fill="#436f1e" d="M330.87 178.51h-36.8c-9.86-5.99-16.67-16.67-41.77-20.85 16.2-5.69 27.97-6.7 38.13-4.38 14.1 3.22 25.07 12.85 40.44 25.23z" data-original="#436f1e"></path><path fill="#ffdf7b" d="m108.63 102.81-1.9 1.06A229.853 229.853 0 0 0 16 196.01l74.84 12.5 30.83-30z" data-original="#ffdf7b"></path><path fill="#ccfff5" d="M330.87 178.51H86.8l14.39 106.87c21.37-13.92 53.2-9.35 88.9-3 41.64 7.41 88.53 17.25 130.2 3l14.39-106.87z" data-original="#ccfff5"></path><path fill="#a5d3ca" d="M116.8 178.51h-30l14.39 106.87c8.192-5.336 17.926-7.948 28.82-8.791z" data-original="#a5d3ca"></path><path fill="#4689d3" d="M190.087 288.375a6 6 0 0 1-6-6V76.819A22.949 22.949 0 0 0 155.1 54.68L88.144 72.941a6 6 0 1 1-3.157-11.577L151.943 43.1a34.948 34.948 0 0 1 44.144 33.716v205.559a6 6 0 0 1-6 6z" data-original="#4689d3"></path><path fill="#f4d376" d="M495.49 329.49q.51 6.72.51 13.59 0 7.44-.6 14.7l-45.28 17.02-84.11-31.61 82.81-31.42z" data-original="#f4d376"></path><path fill="#eaab0c" d="m495.49 329.49-46.67-17.72 40.88-15.51a173.537 173.537 0 0 1 5.79 33.23zM450.12 374.8l45.28-17.02a173.437 173.437 0 0 1-5.64 31.92z" data-original="#eaab0c"></path><path fill="#f4d376" d="m450.12 374.8 39.64 14.9a162.693 162.693 0 0 1-16.64 39.46l-23.02 8.65-83.81-31.5zM489.7 296.26l-40.88 15.51-83.19-31.58 83.66-32.05 23.85 8.9a162.454 162.454 0 0 1 16.56 39.22z" data-original="#f4d376"></path><path fill="#c1914c" d="m473.14 257.04-23.85-8.9 14.26-5.46a151.947 151.947 0 0 1 9.59 14.36zM450.1 437.81l23.02-8.65a151.8 151.8 0 0 1-9.21 13.84z" data-original="#c1914c"></path><path fill="#f4d376" d="m450.1 437.81 13.81 5.19c-14.34 19.15-32.73 34.05-53.61 42.86h-.01l-44.01-16.54zM463.55 242.68l-14.26 5.46L366 217.07l44.03-16.89h.01c2.21.93 4.38 1.92 6.53 2.98 18.13 8.92 34.16 22.53 46.98 39.52z" data-original="#f4d376"></path><g fill="#eaab0c"><path d="m450.12 374.8-83.83 31.51L307 384.03l2.62-19.44 56.39-21.4zM450.1 437.81l-83.82 31.51L298.92 444l1.76-13.03 65.61-24.66zM449.29 248.14l-83.66 32.05-42.47-16.12 4.34-32.23 38.5-14.77zM448.82 311.77l-82.81 31.42-50.93-19.14 3.48-25.83 47.07-18.03zM366.28 469.32l44.01 16.54a112.565 112.565 0 0 1-88.02 0zM410.03 200.18 366 217.07l-34.77-12.97 1.01-7.49a112.479 112.479 0 0 1 77.79 3.57z" fill="#eaab0c" data-original="#eaab0c"></path></g><path fill="#f4d376" d="m366.29 406.31-65.61 24.66 6.32-46.94zM298.92 444l67.36 25.32-44.01 16.54a122.852 122.852 0 0 1-26.88-15.68zM366.01 343.19l-56.39 21.4 5.46-40.54zM366 217.07l-38.5 14.77 3.73-27.74zM365.63 280.19l-47.07 18.03 1.73-12.84 2.87-21.31z" data-original="#f4d376"></path><path fill="#ffdf7b" d="M190.09 282.38c-35.7-6.35-67.53-10.92-88.9 3l25.53 189.51a23.005 23.005 0 0 0 22.79 19.93h122.46a23.005 23.005 0 0 0 22.79-19.93l25.53-189.51c-41.67 14.25-88.56 4.41-130.2-3z" data-original="#ffdf7b"></path><path fill="#e0c169" d="M269.51 376.82a11.1 11.1 0 1 1-11.1 11.1 11.1 11.1 0 0 1 11.1-11.1zM270.93 434.33a22.814 22.814 0 1 1-26.77-18.01 22.816 22.816 0 0 1 26.77 18.01z" data-original="#e0c169"></path><path fill="#d3b767" d="m156.72 474.89-26.71-198.3c-10.894.843-20.628 3.455-28.82 8.791l25.53 189.51a23.005 23.005 0 0 0 22.79 19.93h30a23.005 23.005 0 0 1-22.79-19.931z" data-original="#d3b767"></path><path fill="#d3b562" d="m112.8 127.042-4.17-24.232-1.9 1.06A229.853 229.853 0 0 0 16 196.01l29.788 4.975a229.852 229.852 0 0 1 67.012-73.943z" data-original="#d3b562"></path><path fill="#f4f8fc" d="M139.617 403.767a6 6 0 0 1-5.939-5.2l-.608-4.512a6 6 0 0 1 11.893-1.6l.608 4.511a6 6 0 0 1-5.954 6.8zM148.421 469.132a6 6 0 0 1-5.939-5.2l-6.069-45.059a6 6 0 0 1 11.893-1.6l6.069 45.06a6 6 0 0 1-5.146 6.747 6.138 6.138 0 0 1-.808.052z" data-original="#f4f8fc"></path><path fill="#aa904f" d="M94.9 166.889a6 6 0 0 1-5.4-3.389l-9.924-20.507a6 6 0 0 1 10.8-5.226l9.923 20.507a6 6 0 0 1-5.4 8.615zM70.832 186.426a5.973 5.973 0 0 1-2.576-.585l-17.415-8.294A6 6 0 1 1 56 166.713l17.415 8.294a6 6 0 0 1-2.584 11.419z" data-original="#aa904f"></path></g></svg>
