<svg xmlns="http://www.w3.org/2000/svg" version="1.1" xmlns:xlink="http://www.w3.org/1999/xlink" xmlns:svgjs="http://svgjs.com/svgjs" width="200" height="200" x="0" y="0" viewBox="0 0 512.019 512.019" style="" xml:space="preserve" class=""><g><linearGradient id="a" x1="256.01" x2="256.01" y1=".005" y2="512.014" gradientUnits="userSpaceOnUse"><stop offset="0" stop-color="#666"></stop><stop offset="1" stop-color="#fff"></stop></linearGradient><path fill="url(#a)" d="M326.664 512.014c-1.267 0-2.539-.005-3.821-.017-39.457-.349-79.928-12.098-120.287-34.922-31.69-17.921-63.545-42.794-94.678-73.928C36.936 332.206.647 260.217.02 189.182-.378 144.164 4.738 78.67 53.544 29.863 72.615 10.792 96.407.189 120.536.008l.642-.003h.167c29.204 0 56.321 15.979 70.787 41.733l16.308 29.033.278.579c8.29 17.27 12.348 30.535 13.158 43.011 1.159 17.847-4.603 33.291-17.125 45.906l-45.317 46.973c6.736 18.632 23.973 58.805 56.728 91.631 32.425 32.354 71.517 48.859 90.035 55.352l45.428-47.148c12.729-12.705 27.831-18.769 44.864-18.028 13.087.571 26.884 4.951 44.733 14.201l.593.32 28.473 15.993c25.802 14.494 41.793 41.686 41.732 70.967l-.004.704c-.18 24.053-10.782 47.845-29.854 66.916-21.196 21.196-47.924 36.292-79.442 44.866-22.237 6.049-47.153 9-76.056 9zM121.331 40.005h-.083l-.42.002c-13.549.102-27.403 6.544-38.999 18.14-38.174 38.174-42.145 92.865-41.811 130.681.532 60.179 32.879 122.77 96.143 186.034 63.922 63.923 126.85 96.604 187.035 97.136 37.681.334 92.22-3.674 130.681-42.136 11.597-11.596 18.039-25.449 18.141-39.007l.002-.483c.03-14.734-8.14-28.532-21.322-35.937l-28.173-15.825c-27.777-14.336-35.757-10.053-42.516-3.352l-61.62 63.961-11.231-2.815c-2.721-.682-67.226-17.296-119.266-69.236l-.027-.027c-51.817-51.918-69.756-117.195-70.495-119.949l-2.929-10.925 61.866-64.123c5.846-5.858 10.391-14.005-3.378-42.917l-15.671-27.9c-7.393-13.157-21.153-21.322-35.927-21.322zM441.725 70.3C396.395 24.97 336.125.006 272.019.006v40c110.28 0 200 89.72 200 200h40c0-64.107-24.964-124.377-70.294-169.706zm-169.706 89.705v40c22.056 0 40 17.944 40 40h40c0-44.112-35.888-80-80-80zm0-80v40c66.168 0 120 53.832 120 120h40c0-88.224-71.775-160-160-160z" data-original="url(#a)" class=""></path></g></svg>
